<svg width="62" height="62" viewBox="0 0 32 32" fill="none" xmlns="http://www.w3.org/2000/svg">
<rect width="32" height="32" rx="5.33333" fill="url(#paint0_linear_869_2568)"/>
<path d="M18.3174 17.7598H20.0264C19.9717 18.4115 19.7894 18.9925 19.4795 19.5029C19.1696 20.0088 18.7344 20.4076 18.1738 20.6992C17.6133 20.9909 16.932 21.1367 16.1299 21.1367C15.5146 21.1367 14.9609 21.0273 14.4688 20.8086C13.9766 20.5853 13.555 20.2708 13.2041 19.8652C12.8532 19.4551 12.5843 18.9606 12.3975 18.3818C12.2152 17.8031 12.124 17.1559 12.124 16.4404V15.6133C12.124 14.8978 12.2174 14.2507 12.4043 13.6719C12.5957 13.0931 12.8691 12.5986 13.2246 12.1885C13.5801 11.7738 14.0062 11.457 14.5029 11.2383C15.0042 11.0195 15.5671 10.9102 16.1914 10.9102C16.9844 10.9102 17.6543 11.056 18.2012 11.3477C18.748 11.6393 19.1719 12.0426 19.4727 12.5576C19.778 13.0726 19.9648 13.6628 20.0332 14.3281H18.3242C18.2786 13.8997 18.1784 13.5329 18.0234 13.2275C17.873 12.9222 17.6497 12.6898 17.3535 12.5303C17.0573 12.3662 16.6699 12.2842 16.1914 12.2842C15.7995 12.2842 15.4577 12.3571 15.166 12.5029C14.8743 12.6488 14.6305 12.863 14.4346 13.1455C14.2386 13.4281 14.0905 13.7767 13.9902 14.1914C13.8945 14.6016 13.8467 15.071 13.8467 15.5996V16.4404C13.8467 16.9417 13.89 17.3975 13.9766 17.8076C14.0677 18.2132 14.2044 18.5618 14.3867 18.8535C14.5736 19.1452 14.8105 19.3708 15.0977 19.5303C15.3848 19.6898 15.7288 19.7695 16.1299 19.7695C16.6175 19.7695 17.0117 19.6921 17.3125 19.5371C17.6178 19.3822 17.848 19.1566 18.0029 18.8604C18.1624 18.5596 18.2673 18.1927 18.3174 17.7598Z" fill="white"/>
<defs>
<linearGradient id="paint0_linear_869_2568" x1="32" y1="0" x2="0" y2="32" gradientUnits="userSpaceOnUse">
<stop stop-color="#EBAF23"/>
<stop offset="1" stop-color="#F06423"/>
</linearGradient>
</defs>
</svg>
