<svg width="1434" height="810" viewBox="0 0 1434 810" fill="none" xmlns="http://www.w3.org/2000/svg">
<path opacity="0.2" d="M119.517 753.129C104.733 753.129 90.7758 759.184 80.2236 770.16C69.6901 781.135 63.7462 795.775 63.4829 811.411C63.4641 812.845 62.3543 814 61 814C59.6457 814 58.5359 812.845 58.5171 811.411C58.2538 795.775 52.3099 781.135 41.7764 770.16C31.2242 759.165 17.2862 753.129 2.48289 753.129C1.10977 753.129 0 751.954 0 750.5C0 749.046 1.10977 747.871 2.48289 747.871C17.2673 747.871 31.2242 741.816 41.7764 730.84C52.3099 719.865 58.2538 705.225 58.5171 689.589C58.5359 688.155 59.6457 687 61 687C62.3543 687 63.4641 688.155 63.4829 689.589C63.7462 705.225 69.6901 719.865 80.2236 730.84C90.757 741.816 104.714 747.871 119.517 747.871C120.89 747.871 122 749.046 122 750.5C122 751.954 120.89 753.129 119.517 753.129Z" fill="white"/>
<path opacity="0.2" d="M1403.72 574.403C1394.59 574.403 1385.98 577.92 1379.48 584.32C1372.98 590.72 1369.31 599.244 1369.16 608.351C1369.14 609.186 1368.45 609.869 1367.62 609.869C1366.78 609.869 1366.1 609.186 1366.08 608.351C1365.92 599.244 1362.26 590.72 1355.76 584.32C1349.25 577.92 1340.65 574.403 1331.52 574.403C1330.69 574.403 1329.98 573.72 1329.98 572.86C1329.98 572.025 1330.66 571.317 1331.52 571.317C1340.65 571.317 1349.25 567.801 1355.76 561.401C1362.26 555.001 1365.92 546.476 1366.08 537.369C1366.1 536.535 1366.78 535.852 1367.62 535.852C1368.45 535.852 1369.14 536.535 1369.16 537.369C1369.31 546.476 1372.98 555.001 1379.48 561.401C1385.98 567.801 1394.59 571.317 1403.72 571.317C1404.55 571.317 1405.26 572 1405.26 572.86C1405.26 573.72 1404.55 574.403 1403.72 574.403Z" fill="white"/>
<path opacity="0.2" d="M536.656 80.8697C531.293 80.8697 526.234 82.944 522.414 86.6879C518.594 90.4318 516.444 95.4658 516.343 100.803C516.343 101.284 515.938 101.689 515.432 101.689C514.952 101.689 514.547 101.284 514.522 100.803C514.42 95.4658 512.27 90.4318 508.45 86.6879C504.631 82.9187 499.571 80.8697 494.209 80.8697C493.703 80.8697 493.298 80.465 493.298 79.959C493.298 79.4531 493.703 79.0484 494.209 79.0484C499.571 79.0484 504.631 76.9741 508.45 73.2049C512.27 69.461 514.42 64.427 514.522 59.0895C514.522 58.6088 514.926 58.2041 515.432 58.2041C515.913 58.2041 516.318 58.6088 516.343 59.0895C516.444 64.427 518.594 69.461 522.414 73.2049C526.234 76.9741 531.293 79.0484 536.656 79.0484C537.162 79.0484 537.567 79.4531 537.567 79.959C537.541 80.465 537.137 80.8697 536.656 80.8697Z" fill="white"/>
<path opacity="0.2" d="M1202.36 18.6656C1197 18.6656 1191.94 20.7399 1188.12 24.4838C1184.3 28.2277 1182.15 33.2617 1182.05 38.5992C1182.05 39.0798 1181.64 39.4846 1181.13 39.4846C1180.65 39.4846 1180.25 39.0798 1180.22 38.5992C1180.12 33.2617 1177.97 28.2277 1174.15 24.4838C1170.33 20.7146 1165.27 18.6656 1159.91 18.6656C1159.4 18.6656 1159 18.2609 1159 17.7549C1159 17.249 1159.4 16.8443 1159.91 16.8443C1165.27 16.8443 1170.33 14.77 1174.15 11.0008C1177.97 7.25691 1180.12 2.22292 1180.22 -3.11463C1180.22 -3.59526 1180.63 -4 1181.13 -4C1181.62 -4 1182.02 -3.59526 1182.05 -3.11463C1182.15 2.22292 1184.3 7.25691 1188.12 11.0008C1191.94 14.77 1197 16.8443 1202.36 16.8443C1202.86 16.8443 1203.27 17.249 1203.27 17.7549C1203.24 18.2609 1202.84 18.6656 1202.36 18.6656Z" fill="white"/>
<g opacity="0.2">
<path d="M899.964 76.9396C898.8 76.9396 897.813 75.9783 897.788 74.8147C897.687 68.5918 895.157 62.7483 890.73 58.372C886.278 53.9957 880.384 51.5926 874.136 51.5926C872.947 51.5926 871.96 50.6313 871.96 49.4171C871.96 48.2281 872.922 47.2416 874.136 47.2416C880.384 47.2416 886.278 44.8384 890.73 40.4621C895.183 36.0858 897.687 30.2424 897.788 24.0194C897.813 22.8558 898.775 21.8945 899.964 21.8945C901.127 21.8945 902.114 22.8558 902.139 24.0194C902.24 30.2424 904.77 36.0858 909.197 40.4621C913.649 44.8384 919.543 47.2416 925.791 47.2416C926.98 47.2416 927.967 48.2028 927.967 49.4171C927.967 50.606 927.006 51.5926 925.791 51.5926C919.543 51.5926 913.649 53.9957 909.197 58.372C904.745 62.7483 902.24 68.5918 902.139 74.8147C902.114 75.9783 901.153 76.9396 899.964 76.9396ZM899.989 24.0447C899.812 30.8495 897.08 37.1989 892.223 41.9799C887.366 46.7609 880.941 49.3918 874.136 49.3918C880.941 49.4424 887.366 52.0732 892.223 56.8542C897.08 61.6352 899.812 67.9846 899.938 74.7894C900.115 67.9846 902.847 61.6352 907.704 56.8542C912.561 52.0732 918.987 49.4424 925.791 49.4424C925.817 49.4424 925.817 49.4424 925.817 49.4171C918.987 49.3918 912.561 46.7609 907.704 41.9799C902.847 37.1989 900.115 30.8242 899.989 24.0447Z" fill="white"/>
</g>
<g opacity="0.2">
<path d="M1421 181.045C1419.84 181.045 1418.85 180.084 1418.83 178.92C1418.73 172.697 1416.2 166.854 1411.77 162.477C1407.32 158.101 1401.42 155.698 1395.18 155.698C1393.99 155.698 1393 154.737 1393 153.523C1393 152.334 1393.96 151.347 1395.18 151.347C1401.42 151.347 1407.32 148.944 1411.77 144.568C1416.22 140.191 1418.73 134.348 1418.83 128.125C1418.85 126.961 1419.81 126 1421 126C1422.17 126 1423.15 126.961 1423.18 128.125C1423.28 134.348 1425.81 140.191 1430.24 144.568C1434.69 148.944 1440.58 151.347 1446.83 151.347C1448.02 151.347 1449.01 152.308 1449.01 153.523C1449.01 154.711 1448.05 155.698 1446.83 155.698C1440.58 155.698 1434.69 158.101 1430.24 162.477C1425.78 166.854 1423.28 172.697 1423.18 178.92C1423.15 180.084 1422.19 181.045 1421 181.045ZM1421.03 128.15C1420.85 134.955 1418.12 141.304 1413.26 146.085C1408.41 150.866 1401.98 153.497 1395.18 153.497C1401.98 153.548 1408.41 156.179 1413.26 160.96C1418.12 165.741 1420.85 172.09 1420.98 178.895C1421.15 172.09 1423.89 165.741 1428.74 160.96C1433.6 156.179 1440.03 153.548 1446.83 153.548C1446.86 153.548 1446.86 153.548 1446.86 153.523C1440.03 153.497 1433.6 150.866 1428.74 146.085C1423.89 141.304 1421.15 134.93 1421.03 128.15Z" fill="white"/>
</g>
<g opacity="0.2">
<path d="M75.5778 89.8469C73.7311 89.8469 72.2133 88.3544 72.188 86.5078C71.9857 75.7062 67.6347 65.5623 59.9193 57.9734C52.2038 50.3592 41.9588 46.1852 31.1319 46.1852C29.26 46.1852 27.7422 44.6675 27.7422 42.7955C27.7422 40.9236 29.26 39.4058 31.1319 39.4058C41.9841 39.4058 52.2038 35.2319 59.9193 27.6177C67.6347 20.0287 71.9857 9.88485 72.188 -0.91673C72.2133 -2.76337 73.7564 -4.25586 75.5778 -4.25586C77.4244 -4.25586 78.9422 -2.76337 78.9675 -0.91673C79.1698 9.91015 83.5208 20.0287 91.2363 27.6177C98.9517 35.2319 109.197 39.4058 120.024 39.4058C121.896 39.4058 123.413 40.9236 123.413 42.7955C123.413 44.6675 121.896 46.1852 120.024 46.1852C109.197 46.1852 98.9517 50.3845 91.2363 57.9734C83.5208 65.5623 79.1698 75.7062 78.9675 86.5078C78.9422 88.3544 77.4244 89.8469 75.5778 89.8469ZM75.5778 -1.27088C75.3754 -1.27088 75.1983 -1.0938 75.1983 -0.891433C74.9959 10.7196 70.3161 21.5971 62.0442 29.7426C53.7469 37.9133 42.7683 42.3908 31.1319 42.3908C30.9295 42.3908 30.7525 42.5679 30.7525 42.7702C30.7525 42.9726 30.9295 43.1497 31.1319 43.1497C42.7683 43.1497 53.7469 47.6524 62.0442 55.7979C70.3161 63.9434 74.9959 74.8208 75.1983 86.4319C75.1983 86.6343 75.3754 86.8113 75.5778 86.8113C75.7801 86.8113 75.9572 86.6343 75.9572 86.4319C76.1596 74.8208 80.8394 63.9434 89.1114 55.7979C97.4086 47.6271 108.387 43.1497 120.024 43.1497C120.226 43.1497 120.403 42.9726 120.403 42.7702C120.403 42.5679 120.226 42.3908 120.024 42.3908C108.387 42.3908 97.4086 37.888 89.1114 29.7426C80.8394 21.5971 76.1596 10.7196 75.9572 -0.891433C75.9572 -1.0938 75.7801 -1.27088 75.5778 -1.27088Z" fill="white"/>
</g>
</svg>
