<svg width="446" height="134" viewBox="0 0 446 134" fill="none" xmlns="http://www.w3.org/2000/svg">
<path d="M369.805 92.8627C360.97 92.8627 353.803 85.7035 353.803 76.8778C353.803 68.0521 360.97 60.8928 369.805 60.8928C378.64 60.8928 385.806 68.0521 385.806 76.8778C385.806 85.7035 378.64 92.8627 369.805 92.8627ZM369.805 47.6543C353.648 47.6543 340.581 60.7386 340.581 76.847C340.581 92.9863 353.679 106.04 369.805 106.04C385.961 106.04 399.028 92.9554 399.028 76.847C399.028 60.7386 385.93 47.6543 369.805 47.6543Z" fill="white"/>
<path d="M348.643 103.168V49.1953L324.362 53.4848V65.3655H332.456V106.069L348.643 103.168Z" fill="white"/>
<path d="M340.797 129.553H334.588L334.742 128.627L334.68 128.597C333.723 129.522 332.394 129.923 331.066 129.923C327.513 129.923 324.888 127.146 324.888 123.073C324.888 120.419 326 117.734 327.977 115.883C329.552 114.401 331.931 113.321 334.989 113.321C337.955 113.321 341.106 114.309 343.268 115.451L340.797 129.553ZM336.287 118.722C335.916 118.536 335.267 118.351 334.619 118.351C333.383 118.351 332.642 118.938 332.24 119.524C331.653 120.295 331.375 121.406 331.375 122.332C331.375 123.937 332.24 124.955 333.754 124.955C334.248 124.955 334.742 124.863 335.267 124.646L336.287 118.722Z" fill="white"/>
<path d="M353.215 114.895C354.759 113.692 356.18 113.321 357.54 113.321C360.691 113.321 362.606 115.451 362.606 118.32C362.606 118.876 362.544 119.462 362.451 120.018L360.783 129.553H354.389L355.964 120.573C355.995 120.419 356.026 120.141 356.026 119.956C356.026 119.154 355.532 118.567 354.574 118.567C353.894 118.567 353.153 118.814 352.504 119.308L350.682 129.553H344.287L347.098 113.661H353.369L353.153 114.864L353.215 114.895Z" fill="white"/>
<path d="M367.363 115.945C369.155 114.217 371.596 113.291 374.314 113.291C379.01 113.291 382.717 116.007 382.717 120.697C382.717 122.981 381.821 125.48 379.998 127.239C378.206 128.967 375.766 129.893 373.047 129.893C368.352 129.893 364.645 127.178 364.645 122.487C364.645 120.204 365.572 117.735 367.363 115.945ZM373.387 124.555C374.129 124.555 374.901 124.308 375.488 123.629C376.044 122.981 376.384 122.086 376.384 121.129C376.384 119.648 375.488 118.599 374.005 118.599C373.264 118.599 372.491 118.846 371.904 119.525C371.348 120.173 371.009 121.068 371.009 122.024C370.978 123.536 371.905 124.555 373.387 124.555Z" fill="white"/>
<path d="M384.972 122.918C387.196 124.461 390.069 125.387 391.552 125.387C392.077 125.387 392.417 125.233 392.417 124.708C392.417 123.906 391.027 124.029 388.895 123.165C386.424 122.178 385.342 120.851 385.342 119.092C385.342 117.426 386.115 115.883 387.567 114.802C388.895 113.846 390.749 113.321 392.726 113.321C394.795 113.321 397.205 113.815 399.305 114.772L398.441 119.709C396.371 118.382 393.776 117.827 392.664 117.827C392.077 117.827 391.799 118.012 391.799 118.444C391.799 119.154 393.034 119.123 395.166 119.894C397.514 120.758 398.873 122.054 398.873 124.029C398.873 125.603 398.101 127.208 396.772 128.257C395.413 129.337 393.529 129.893 391.459 129.893C388.957 129.893 386.393 129.214 384.014 128.041L384.972 122.918Z" fill="white"/>
<path d="M414.103 60.8934C412.311 60.8934 410.859 59.4739 410.797 57.684C410.55 44.6924 399.46 34.1386 386.053 34.1386C384.23 34.1386 382.748 32.6882 382.748 30.8676C382.748 29.0777 384.23 27.5965 386.053 27.5965C399.46 27.5965 410.55 17.0427 410.797 4.05107C410.828 2.2921 412.311 0.841797 414.103 0.841797C415.894 0.841797 417.377 2.2921 417.408 4.05107C417.655 17.0119 428.745 27.5965 442.152 27.5965C443.975 27.5965 445.458 29.0469 445.458 30.8676C445.458 32.6574 443.975 34.1386 442.152 34.1386C428.745 34.1386 417.655 44.6924 417.408 57.684C417.346 59.4739 415.894 60.8934 414.103 60.8934ZM393.436 30.8984C403.476 33.5215 411.477 41.2979 414.072 51.1419C416.698 41.3288 424.668 33.5215 434.707 30.8984C424.668 28.2754 416.667 20.499 414.072 10.6858C411.477 20.499 403.507 28.3063 393.436 30.8984Z" fill="white"/>
<path d="M259.798 113.903C246.886 113.903 236.444 103.473 236.444 90.5737C236.444 77.7055 246.886 67.2444 259.798 67.2444C272.711 67.2444 283.153 77.6746 283.153 90.5737C283.153 103.473 272.711 113.903 259.798 113.903ZM259.798 47.9883C236.259 47.9883 217.168 67.0591 217.168 90.5737C217.168 114.088 236.259 133.159 259.798 133.159C283.338 133.159 302.429 114.088 302.429 90.5737C302.429 67.0591 283.338 47.9883 259.798 47.9883Z" fill="#0963AD"/>
<path d="M193.845 113.903C180.933 113.903 170.491 103.473 170.491 90.5737C170.491 77.7055 180.933 67.2444 193.845 67.2444C206.758 67.2444 217.199 77.6746 217.199 90.5737C217.169 103.473 206.727 113.903 193.845 113.903ZM193.845 47.9883C170.306 47.9883 151.215 67.0591 151.215 90.5737C151.215 114.088 170.306 133.159 193.845 133.159C217.385 133.159 236.476 114.088 236.476 90.5737C236.445 67.0591 217.385 47.9883 193.845 47.9883Z" fill="#76B739"/>
<path d="M127.892 113.903C114.979 113.903 104.538 103.473 104.538 90.5737C104.538 77.7055 114.979 67.2444 127.892 67.2444C140.804 67.2444 151.246 77.6746 151.246 90.5737C151.246 103.473 140.774 113.903 127.892 113.903ZM127.892 47.9883C104.352 47.9883 85.2612 67.0591 85.2612 90.5737C85.2612 114.088 104.352 133.159 127.892 133.159C151.431 133.159 170.522 114.088 170.522 90.5737C170.522 67.0591 151.431 47.9883 127.892 47.9883Z" fill="#F08503"/>
<path d="M42.6304 113.901C29.7486 113.901 19.2764 103.47 19.2764 90.5714C19.2764 77.7031 29.7177 67.242 42.6304 67.242C55.5432 67.242 65.9846 77.6723 65.9846 90.5714C65.9846 103.47 55.5432 113.901 42.6304 113.901ZM94.8992 114.117V1.32715L75.6227 4.75255V63.6006C67.8072 54.0652 55.9447 47.986 42.6304 47.986C19.091 47.986 0 67.0568 0 90.5714C0 114.086 19.091 133.157 42.6304 133.157C55.9447 133.157 67.8072 127.078 75.6227 117.542V131.676H104.537V112.42L94.8992 114.117Z" fill="white"/>
<path d="M119.705 13.7647H123.968C127.397 13.7647 128.633 11.944 128.633 9.56788C128.633 7.13002 127.397 5.27844 123.968 5.27844H119.705V13.7647ZM136.665 28.4845H130.61L123.103 17.6838H119.705V28.4845H114.176V1.35938H124.864C131.29 1.35938 134.07 5.15501 134.07 9.53699C134.07 13.2092 132.124 16.0791 128.633 17.0975L136.665 28.4845Z" fill="white"/>
<path d="M149.021 28.4831V1.32715H166.722V5.6166H154.551V12.0043H164.467V16.2938H154.551V24.1628H166.722V28.4831H149.021Z" fill="white"/>
<path d="M189.767 5.77219H185.999V24.0408H189.767C197.181 24.0408 199.807 20.3376 199.807 14.9064C199.807 9.47525 197.212 5.77219 189.767 5.77219ZM190.046 28.4845H180.5V1.35938H190.046C200.919 1.35938 205.491 7.46944 205.491 14.9373C205.491 22.3743 200.919 28.4845 190.046 28.4845Z" fill="white"/>
<path d="M218.744 28.4831V1.32715H236.445V5.6166H224.273V12.0043H234.189V16.2938H224.273V24.1628H236.445V28.4831H218.744Z" fill="white"/>
<path d="M94.8994 114.115V49.8047L65.9849 54.9273V69.0608H75.623V117.54L94.8994 114.115Z" fill="#FAB906"/>
</svg>
