<svg width="632" height="219" viewBox="0 0 632 219" fill="none" xmlns="http://www.w3.org/2000/svg">
<path d="M369.805 152.863C360.97 152.863 353.803 145.703 353.803 136.878C353.803 128.052 360.97 120.893 369.805 120.893C378.64 120.893 385.806 128.052 385.806 136.878C385.806 145.703 378.64 152.863 369.805 152.863ZM369.805 107.654C353.648 107.654 340.581 120.739 340.581 136.847C340.581 152.986 353.679 166.04 369.805 166.04C385.961 166.04 399.028 152.955 399.028 136.847C399.028 120.739 385.93 107.654 369.805 107.654Z" fill="white"/>
<path d="M348.643 163.168V109.195L324.362 113.485V125.366H332.456V166.069L348.643 163.168Z" fill="white"/>
<path d="M340.797 189.553H334.588L334.742 188.627L334.68 188.597C333.723 189.522 332.394 189.923 331.066 189.923C327.513 189.923 324.888 187.146 324.888 183.073C324.888 180.419 326 177.734 327.977 175.883C329.552 174.401 331.931 173.321 334.989 173.321C337.955 173.321 341.106 174.309 343.268 175.451L340.797 189.553ZM336.287 178.722C335.916 178.536 335.267 178.351 334.619 178.351C333.383 178.351 332.642 178.938 332.24 179.524C331.653 180.295 331.375 181.406 331.375 182.332C331.375 183.937 332.24 184.955 333.754 184.955C334.248 184.955 334.742 184.863 335.267 184.646L336.287 178.722Z" fill="white"/>
<path d="M353.215 174.895C354.759 173.692 356.18 173.321 357.54 173.321C360.691 173.321 362.606 175.451 362.606 178.32C362.606 178.876 362.544 179.462 362.451 180.018L360.783 189.553H354.389L355.964 180.573C355.995 180.419 356.026 180.141 356.026 179.956C356.026 179.154 355.532 178.567 354.574 178.567C353.894 178.567 353.153 178.814 352.504 179.308L350.682 189.553H344.287L347.098 173.661H353.369L353.153 174.864L353.215 174.895Z" fill="white"/>
<path d="M367.363 175.945C369.155 174.217 371.596 173.291 374.314 173.291C379.01 173.291 382.717 176.007 382.717 180.697C382.717 182.981 381.821 185.48 379.998 187.239C378.206 188.967 375.766 189.893 373.047 189.893C368.352 189.893 364.645 187.178 364.645 182.487C364.645 180.204 365.572 177.735 367.363 175.945ZM373.387 184.555C374.129 184.555 374.901 184.308 375.488 183.629C376.044 182.981 376.384 182.086 376.384 181.129C376.384 179.648 375.488 178.599 374.005 178.599C373.264 178.599 372.491 178.846 371.904 179.525C371.348 180.173 371.009 181.068 371.009 182.024C370.978 183.536 371.905 184.555 373.387 184.555Z" fill="white"/>
<path d="M384.972 182.918C387.196 184.461 390.069 185.387 391.552 185.387C392.077 185.387 392.417 185.233 392.417 184.708C392.417 183.906 391.027 184.029 388.895 183.165C386.424 182.178 385.342 180.851 385.342 179.092C385.342 177.426 386.115 175.883 387.567 174.802C388.895 173.846 390.749 173.321 392.726 173.321C394.795 173.321 397.205 173.815 399.305 174.772L398.441 179.709C396.371 178.382 393.776 177.827 392.664 177.827C392.077 177.827 391.799 178.012 391.799 178.444C391.799 179.154 393.034 179.123 395.166 179.894C397.514 180.758 398.873 182.054 398.873 184.029C398.873 185.603 398.101 187.208 396.772 188.257C395.413 189.337 393.529 189.893 391.459 189.893C388.957 189.893 386.393 189.214 384.014 188.041L384.972 182.918Z" fill="white"/>
<path d="M414.103 120.893C412.311 120.893 410.859 119.474 410.797 117.684C410.55 104.692 399.46 94.1386 386.053 94.1386C384.23 94.1386 382.748 92.6882 382.748 90.8676C382.748 89.0777 384.23 87.5965 386.053 87.5965C399.46 87.5965 410.55 77.0427 410.797 64.0511C410.828 62.2921 412.311 60.8418 414.103 60.8418C415.894 60.8418 417.377 62.2921 417.408 64.0511C417.655 77.0118 428.745 87.5965 442.152 87.5965C443.975 87.5965 445.458 89.0469 445.458 90.8676C445.458 92.6574 443.975 94.1386 442.152 94.1386C428.745 94.1386 417.655 104.692 417.408 117.684C417.346 119.474 415.894 120.893 414.103 120.893ZM393.436 90.8984C403.476 93.5215 411.477 101.298 414.072 111.142C416.698 101.329 424.668 93.5215 434.707 90.8984C424.668 88.2754 416.667 80.499 414.072 70.6858C411.477 80.499 403.507 88.3063 393.436 90.8984Z" fill="white"/>
<path d="M259.798 173.903C246.886 173.903 236.444 163.473 236.444 150.574C236.444 137.705 246.886 127.244 259.798 127.244C272.711 127.244 283.153 137.675 283.153 150.574C283.153 163.473 272.711 173.903 259.798 173.903ZM259.798 107.988C236.259 107.988 217.168 127.059 217.168 150.574C217.168 174.088 236.259 193.159 259.798 193.159C283.338 193.159 302.429 174.088 302.429 150.574C302.429 127.059 283.338 107.988 259.798 107.988Z" fill="#0963AD"/>
<path d="M193.845 173.903C180.933 173.903 170.491 163.473 170.491 150.574C170.491 137.705 180.933 127.244 193.845 127.244C206.758 127.244 217.199 137.675 217.199 150.574C217.169 163.473 206.727 173.903 193.845 173.903ZM193.845 107.988C170.306 107.988 151.215 127.059 151.215 150.574C151.215 174.088 170.306 193.159 193.845 193.159C217.385 193.159 236.476 174.088 236.476 150.574C236.445 127.059 217.385 107.988 193.845 107.988Z" fill="#76B739"/>
<path d="M127.892 173.903C114.979 173.903 104.538 163.473 104.538 150.574C104.538 137.705 114.979 127.244 127.892 127.244C140.804 127.244 151.246 137.675 151.246 150.574C151.246 163.473 140.774 173.903 127.892 173.903ZM127.892 107.988C104.352 107.988 85.2612 127.059 85.2612 150.574C85.2612 174.088 104.352 193.159 127.892 193.159C151.431 193.159 170.522 174.088 170.522 150.574C170.522 127.059 151.431 107.988 127.892 107.988Z" fill="#F08503"/>
<path d="M42.6304 173.901C29.7486 173.901 19.2764 163.47 19.2764 150.571C19.2764 137.703 29.7177 127.242 42.6304 127.242C55.5432 127.242 65.9846 137.672 65.9846 150.571C65.9846 163.47 55.5432 173.901 42.6304 173.901ZM94.8992 174.117V61.3271L75.6228 64.7525V123.601C67.8072 114.065 55.9447 107.986 42.6304 107.986C19.091 107.986 0 127.057 0 150.571C0 174.086 19.091 193.157 42.6304 193.157C55.9447 193.157 67.8072 187.078 75.6228 177.542V191.676H104.537V172.42L94.8992 174.117Z" fill="white"/>
<path d="M119.705 73.7647H123.968C127.397 73.7647 128.633 71.944 128.633 69.5679C128.633 67.13 127.397 65.2784 123.968 65.2784H119.705V73.7647ZM136.665 88.4845H130.61L123.103 77.6838H119.705V88.4845H114.176V61.3594H124.864C131.29 61.3594 134.07 65.155 134.07 69.537C134.07 73.2092 132.124 76.0791 128.633 77.0975L136.665 88.4845Z" fill="white"/>
<path d="M149.021 88.4831V61.3271H166.722V65.6166H154.551V72.0043H164.467V76.2938H154.551V84.1628H166.722V88.4831H149.021Z" fill="white"/>
<path d="M189.767 65.7722H185.999V84.0408H189.767C197.181 84.0408 199.807 80.3376 199.807 74.9064C199.807 69.4752 197.212 65.7722 189.767 65.7722ZM190.046 88.4845H180.5V61.3594H190.046C200.919 61.3594 205.491 67.4694 205.491 74.9373C205.491 82.3743 200.919 88.4845 190.046 88.4845Z" fill="white"/>
<path d="M218.744 88.4831V61.3271H236.445V65.6166H224.273V72.0043H234.189V76.2938H224.273V84.1628H236.445V88.4831H218.744Z" fill="white"/>
<path d="M94.8994 174.115V109.805L65.9849 114.927V129.061H75.623V177.54L94.8994 174.115Z" fill="#FAB906"/>
<g clip-path="url(#clip0_832_2265)">
<path d="M620.695 184.405V128.805H492.695V184.405L556.695 218.805L620.695 184.405Z" fill="#002171"/>
<path d="M536.695 192.604H539.995C540.595 192.604 541.295 192.804 541.795 193.204C542.295 193.604 542.495 194.204 542.495 194.804C542.495 195.404 542.195 196.004 541.695 196.404C541.995 196.504 542.295 196.804 542.495 197.104C542.695 197.504 542.795 197.904 542.795 198.304C542.795 198.904 542.595 199.604 542.095 200.004C541.595 200.404 540.895 200.604 540.195 200.604H536.695V192.604ZM538.295 194.104V195.804H539.895C540.495 195.804 540.795 195.504 540.795 194.904C540.795 194.704 540.695 194.404 540.495 194.304C540.295 194.104 539.995 194.104 539.795 194.104H538.295ZM538.295 197.204V199.104H539.995C540.695 199.104 541.095 198.804 541.095 198.204C541.095 197.904 540.995 197.704 540.795 197.504C540.595 197.304 540.295 197.304 539.995 197.304H538.295V197.204Z" fill="white"/>
<path d="M548.896 200.504L547.296 197.604H545.996V200.504H544.396V192.604H547.696C548.396 192.604 548.996 192.804 549.496 193.304C549.996 193.804 550.196 194.504 550.196 195.204C550.196 195.704 550.096 196.204 549.896 196.604C549.696 197.004 549.396 197.304 548.996 197.504L550.696 200.604H548.896V200.504ZM545.996 196.204H547.596C547.896 196.204 548.196 196.104 548.396 195.904C548.596 195.704 548.696 195.404 548.696 195.104C548.696 194.804 548.596 194.504 548.396 194.304C548.196 194.104 547.896 194.004 547.596 194.004H545.996V196.204Z" fill="white"/>
<path d="M559.696 200.504H557.896L557.196 199.004H553.896L553.196 200.504H551.396L554.796 192.604H556.196L559.696 200.504ZM554.496 197.704H556.696L555.596 195.204L554.496 197.704Z" fill="white"/>
<path d="M563.195 192.505C563.995 192.505 564.695 192.705 565.295 193.105C565.795 193.505 566.095 194.205 566.095 194.905L564.395 195.005C564.395 194.705 564.295 194.405 564.095 194.205C563.795 194.005 563.495 193.905 563.195 193.905C562.895 193.905 562.595 194.005 562.295 194.205C562.095 194.405 561.995 194.605 561.995 194.905C561.995 195.205 562.095 195.405 562.295 195.505C562.695 195.705 563.095 195.805 563.495 195.905C564.195 196.105 564.895 196.305 565.495 196.705C565.995 197.105 566.195 197.605 566.195 198.205C566.195 198.905 565.895 199.605 565.395 200.005C564.795 200.405 564.095 200.605 563.295 200.605C562.495 200.605 561.695 200.405 560.995 199.905C560.395 199.505 560.095 198.805 560.095 198.005L561.795 197.905C561.795 198.205 561.995 198.605 562.195 198.805C562.495 199.005 562.895 199.105 563.295 199.105C564.095 199.105 564.495 198.805 564.495 198.205C564.495 197.905 564.395 197.705 564.095 197.605C563.695 197.405 563.295 197.305 562.895 197.205C562.495 197.105 562.095 197.005 561.895 196.905C561.595 196.805 561.395 196.705 561.095 196.505C560.795 196.305 560.595 196.105 560.495 195.805C560.395 195.505 560.295 195.105 560.295 194.805C560.295 194.105 560.595 193.505 560.995 193.105C561.695 192.705 562.395 192.405 563.195 192.505Z" fill="white"/>
<path d="M569.395 200.504H567.695V192.604H569.295L569.395 200.504Z" fill="white"/>
<path d="M572.795 199.104H576.195V200.504H571.095V192.604H572.695V199.104H572.795Z" fill="white"/>
<path d="M620.695 0.804688H492.695V128.805H620.695V0.804688Z" fill="#E60000"/>
<path d="M524.496 20.5051V22.2051C524.596 25.1051 523.496 28.0051 521.396 30.0051C519.196 32.0051 516.396 33.1051 513.396 33.0051C510.196 33.1051 507.096 31.9051 504.796 29.6051C502.596 27.4051 501.296 24.4051 501.396 21.3051C501.296 14.9051 506.396 9.60514 512.796 9.60514C512.896 9.60514 513.096 9.60514 513.196 9.60514C517.196 9.50514 520.896 11.5051 522.996 14.8051L519.196 17.0051C517.896 15.0051 515.596 13.8051 513.196 13.9051C511.196 13.8051 509.296 14.6051 507.896 16.0051C506.496 17.4051 505.796 19.3051 505.796 21.3051C505.696 23.3051 506.496 25.2051 507.896 26.6051C509.396 28.0051 511.396 28.8051 513.496 28.7051C516.896 28.7051 519.296 27.1051 519.996 24.4051H513.196V20.5051H524.496Z" fill="white"/>
<path d="M531.195 19.3046C531.895 17.4046 533.795 16.1046 535.795 16.2046V20.8046C534.695 20.6046 533.495 20.9046 532.595 21.6046C531.595 22.4046 531.095 23.6046 531.195 24.9046V32.6046H527.295V16.6046H531.195V19.3046Z" fill="white"/>
<path d="M542.495 26.3042C542.995 28.3042 544.595 29.3042 546.995 29.3042C548.395 29.4042 549.695 28.8042 550.595 27.7042L553.895 29.6042C552.295 31.9042 549.695 33.2042 546.895 33.0042C544.495 33.1042 542.195 32.2042 540.495 30.6042C538.895 29.0042 537.995 26.8042 538.095 24.5042C538.095 22.3042 538.895 20.1042 540.495 18.5042C542.095 16.9042 544.295 16.0042 546.595 16.1042C548.795 16.0042 550.895 16.9042 552.395 18.5042C553.895 20.1042 554.795 22.3042 554.695 24.5042C554.695 25.1042 554.595 25.6042 554.495 26.2042L542.495 26.3042ZM550.595 23.1042C550.295 21.2042 548.595 19.8042 546.595 19.9042C544.595 19.8042 542.795 21.1042 542.395 23.1042H550.595Z" fill="white"/>
<path d="M569.595 16.6042H573.695V32.6042H569.595V30.7042C568.295 32.3042 566.395 33.1042 564.395 33.0042C562.295 33.0042 560.295 32.1042 558.895 30.6042C557.395 29.0042 556.595 26.8042 556.595 24.6042C556.595 22.4042 557.395 20.2042 558.895 18.6042C560.295 17.0042 562.295 16.1042 564.395 16.1042C566.395 16.0042 568.395 16.9042 569.595 18.4042V16.6042ZM565.195 29.1042C566.395 29.1042 567.495 28.7042 568.395 27.9042C569.295 27.0042 569.695 25.8042 569.695 24.6042C569.795 23.4042 569.295 22.2042 568.395 21.4042C566.595 19.7042 563.795 19.7042 561.995 21.4042C561.195 22.3042 560.695 23.4042 560.795 24.6042C560.795 25.8042 561.195 27.0042 561.995 27.9042C562.795 28.7042 563.995 29.1042 565.195 29.1042Z" fill="white"/>
<path d="M587.395 20.5045H583.695V27.2045C583.695 28.9045 584.895 29.0045 587.295 28.8045V32.6045C581.595 33.2045 579.495 31.6045 579.495 27.2045V20.5045H576.695V16.5045H579.495V13.3045L583.595 12.1045V16.6045H587.195L587.395 20.5045Z" fill="white"/>
<path d="M512.795 38.4043C514.795 38.4043 516.795 39.1043 518.195 40.6043C521.195 43.6043 521.195 48.4043 518.195 51.3043C516.795 52.7043 514.795 53.5043 512.695 53.5043H508.695V60.8043H504.295V38.4043H512.795ZM512.795 49.4043C514.695 49.3043 516.095 47.7043 515.995 45.8043C515.895 44.1043 514.495 42.7043 512.795 42.6043H508.795V49.4043H512.795Z" fill="white"/>
<path d="M523.495 60.8045V38.6045H527.595V60.8045H523.495Z" fill="white"/>
<path d="M544.196 44.8048H548.296V60.8048H544.196V58.9048C542.896 60.5048 540.996 61.3048 538.996 61.2048C536.896 61.2048 534.896 60.3048 533.496 58.7048C531.996 57.1048 531.196 54.9048 531.196 52.7048C531.096 50.5048 531.996 48.3048 533.496 46.7048C534.896 45.1048 536.896 44.2048 538.996 44.2048C540.996 44.1048 542.996 45.0048 544.196 46.5048V44.8048ZM539.796 57.3048C540.996 57.3048 542.096 56.9048 542.996 56.1048C543.896 55.2048 544.296 54.1048 544.296 52.8048C544.396 51.6048 543.896 50.4048 542.996 49.6048C541.196 47.9048 538.396 47.9048 536.596 49.6048C535.796 50.5048 535.296 51.6048 535.396 52.8048C535.396 54.0048 535.796 55.2048 536.596 56.1048C537.496 56.9048 538.596 57.4048 539.796 57.3048Z" fill="white"/>
<path d="M554.395 58.8042C551.095 55.5042 550.995 50.1042 554.295 46.8042C555.895 45.2042 558.095 44.3042 560.395 44.3042C563.395 44.2042 566.195 45.8042 567.595 48.4042L563.995 50.5042C563.295 49.2042 561.895 48.3042 560.295 48.4042C557.995 48.3042 555.995 50.2042 555.995 52.5042C555.995 52.6042 555.995 52.7042 555.995 52.8042C555.995 54.0042 556.395 55.1042 557.195 55.9042C557.995 56.7042 559.095 57.2042 560.295 57.1042C561.795 57.2042 563.295 56.3042 563.995 55.0042L567.595 57.1042C565.195 61.2042 559.895 62.5042 555.895 60.0042C555.395 59.7042 554.895 59.3042 554.395 58.8042Z" fill="white"/>
<path d="M574.295 54.505C574.895 56.505 576.395 57.505 578.795 57.505C580.195 57.605 581.495 57.005 582.395 55.905L585.695 57.805C584.095 60.105 581.495 61.405 578.695 61.205C576.295 61.305 573.995 60.405 572.295 58.805C570.695 57.205 569.795 55.005 569.895 52.805C569.895 50.605 570.695 48.405 572.295 46.805C573.895 45.205 576.095 44.305 578.395 44.405C580.595 44.305 582.695 45.205 584.195 46.805C585.695 48.405 586.595 50.605 586.495 52.805C586.495 53.405 586.395 53.905 586.295 54.505H574.295ZM582.395 51.305C582.095 49.405 580.395 48.005 578.395 48.105C576.395 48.005 574.595 49.405 574.195 51.305H582.395Z" fill="white"/>
<path d="M517.995 67.7051V71.7051H511.895V89.0051H507.495V71.7051H501.495V67.7051H517.995Z" fill="white"/>
<path d="M524.895 89.5043C520.295 89.6043 516.495 85.9043 516.395 81.3043C516.395 81.2043 516.395 81.1043 516.395 81.0043C516.295 78.7043 517.195 76.6043 518.795 75.0043C522.095 71.7043 527.495 71.7043 530.895 75.0043C532.495 76.6043 533.395 78.7043 533.395 81.0043C533.495 85.6043 529.695 89.4043 525.095 89.5043C524.995 89.5043 524.995 89.5043 524.895 89.5043ZM524.895 85.5043C526.095 85.5043 527.195 85.1043 527.995 84.3043C529.695 82.5043 529.695 79.7043 527.995 77.9043C526.295 76.2043 523.495 76.2043 521.795 77.9043C520.195 79.7043 520.195 82.5043 521.795 84.3043C522.595 85.1043 523.695 85.5043 524.895 85.5043Z" fill="white"/>
<path d="M508.395 118.604L502.095 96.1045H506.695L510.995 112.804L515.695 96.1045H519.495L524.195 112.804L528.495 96.1045H533.195L526.895 118.604H521.895L517.595 103.804L513.395 118.604H508.395Z" fill="white"/>
<path d="M541.295 119.005C536.695 119.105 532.895 115.405 532.795 110.805C532.795 110.705 532.795 110.605 532.795 110.505C532.695 108.205 533.595 106.105 535.195 104.505C538.495 101.105 543.895 101.105 547.195 104.405C550.595 107.705 550.595 113.105 547.295 116.405C545.795 118.105 543.595 119.105 541.295 119.005ZM541.295 115.005C542.495 115.005 543.595 114.605 544.395 113.805C546.095 112.005 546.095 109.205 544.395 107.405C542.695 105.705 539.895 105.705 538.195 107.405C536.595 109.205 536.595 112.005 538.195 113.805C538.995 114.605 540.095 115.005 541.295 115.005Z" fill="white"/>
<path d="M556.795 105.305C557.595 103.305 559.495 102.105 561.695 102.205V106.805C560.495 106.605 559.295 106.905 558.295 107.605C557.295 108.405 556.695 109.605 556.795 110.905V118.605H552.695V102.605H556.895L556.795 105.305Z" fill="white"/>
<path d="M579.596 118.604H574.796L568.996 111.304V118.604H564.896V96.1045H568.996V109.604L574.496 102.504H579.396L572.996 110.404L579.596 118.604Z" fill="white"/>
<path d="M581.095 115.705C581.095 113.705 582.695 112.105 584.695 112.005C586.695 112.005 588.295 113.605 588.395 115.605C588.395 117.605 586.795 119.205 584.795 119.305C582.695 119.305 581.095 117.705 581.095 115.705ZM587.695 115.705C587.695 114.005 586.395 112.705 584.695 112.705C582.995 112.705 581.695 114.005 581.695 115.705C581.695 117.405 582.995 118.705 584.695 118.705C586.295 118.805 587.595 117.505 587.695 115.905C587.695 115.805 587.695 115.805 587.695 115.705ZM583.495 113.805H584.695C585.495 113.805 586.095 114.105 586.095 114.905C586.095 115.405 585.795 115.805 585.395 115.905L586.295 117.405H585.495L584.595 116.005H584.195V117.405H583.395L583.495 113.805ZM584.695 115.505C585.095 115.505 585.295 115.305 585.295 115.005C585.295 114.605 585.095 114.505 584.695 114.505H584.195V115.505H584.695Z" fill="white"/>
<path d="M507.595 137.305C509.395 137.305 511.095 137.805 512.495 138.905C513.895 140.005 514.695 141.505 514.995 143.205L511.695 143.505C511.495 142.505 510.995 141.605 510.295 141.005C509.495 140.405 508.595 140.105 507.595 140.105C506.295 140.005 505.095 140.605 504.295 141.505C503.395 142.605 502.995 143.905 503.095 145.305C502.995 146.705 503.495 148.105 504.395 149.105C505.195 150.005 506.395 150.505 507.695 150.505C508.695 150.505 509.595 150.205 510.395 149.605C511.195 149.005 511.695 148.105 511.795 147.205L515.195 147.505C514.995 149.205 514.095 150.705 512.695 151.805C511.295 152.905 509.595 153.405 507.795 153.405C503.395 153.405 499.795 149.805 499.795 145.405C499.795 141.005 503.195 137.305 507.595 137.305Z" fill="white"/>
<path d="M527.496 148.705H520.096C520.096 149.305 520.296 149.905 520.696 150.305C521.096 150.705 521.696 150.905 522.296 150.905C523.396 150.905 523.996 150.505 524.296 149.705L527.396 149.805C527.196 150.805 526.596 151.705 525.696 152.305C524.696 153.005 523.596 153.305 522.396 153.305C520.896 153.405 519.496 152.805 518.396 151.805C516.396 149.505 516.396 146.005 518.396 143.605C519.496 142.605 520.896 142.005 522.396 142.105C523.796 142.005 525.096 142.605 526.096 143.505C527.096 144.605 527.596 146.005 527.496 147.405V148.705ZM522.296 144.505C521.696 144.505 521.196 144.705 520.696 145.105C520.296 145.505 519.996 146.105 519.996 146.705H524.296C524.296 146.105 524.096 145.605 523.696 145.105C523.396 144.605 522.896 144.405 522.296 144.505Z" fill="white"/>
<path d="M535.595 142.205V145.105C534.795 145.105 534.095 145.305 533.495 145.805C532.995 146.305 532.695 146.905 532.695 147.605V153.005H529.695V142.205H532.695V143.405C533.395 142.605 534.495 142.105 535.595 142.205Z" fill="white"/>
<path d="M541.495 144.905V148.905C541.495 149.405 541.595 149.805 541.995 150.105C542.295 150.405 542.695 150.505 543.195 150.505C543.495 150.505 543.795 150.505 544.095 150.405V153.105C543.495 153.205 542.995 153.205 542.395 153.205C541.395 153.305 540.295 152.905 539.495 152.305C538.795 151.605 538.395 150.605 538.495 149.605V144.905H536.495V142.305H538.495V138.805H541.495V142.405H543.995V145.005L541.495 144.905Z" fill="white"/>
<path d="M547.595 137.005C548.595 137.005 549.395 137.805 549.395 138.805C549.395 138.805 549.395 138.805 549.395 138.905C549.395 139.905 548.595 140.705 547.595 140.705C547.095 140.705 546.595 140.505 546.295 140.205C545.995 139.905 545.795 139.405 545.795 138.905C545.795 137.805 546.595 137.005 547.595 137.005ZM549.095 153.105H546.095V142.305H549.095V153.105Z" fill="white"/>
<path d="M556.995 136.805C557.395 136.805 557.695 136.805 558.095 136.905V139.505C557.895 139.505 557.595 139.505 557.395 139.505C556.895 139.505 556.495 139.605 556.095 140.005C555.795 140.305 555.595 140.805 555.595 141.205V142.405H558.095V145.005H555.595V153.105H552.595V145.005H550.595V142.405H552.595V141.305C552.495 140.105 552.995 138.905 553.795 138.105C554.695 137.205 555.795 136.805 556.995 136.805ZM561.395 137.005C562.395 137.005 563.195 137.805 563.195 138.805C563.195 139.805 562.295 140.605 561.295 140.605C560.795 140.605 560.395 140.405 559.995 140.105C559.695 139.805 559.495 139.305 559.495 138.805C559.595 137.805 560.395 137.005 561.395 137.005ZM562.895 153.105H559.895V142.305H562.895V153.105Z" fill="white"/>
<path d="M570.795 142.105C571.995 142.105 573.195 142.505 574.195 143.205C575.095 143.905 575.695 145.005 575.895 146.205L572.895 146.405C572.895 145.905 572.595 145.405 572.195 145.105C571.795 144.805 571.295 144.605 570.795 144.605C570.095 144.605 569.495 144.905 568.995 145.405C568.495 146.005 568.295 146.805 568.295 147.605C568.295 148.405 568.495 149.205 568.995 149.805C569.395 150.305 570.095 150.605 570.795 150.605C571.295 150.605 571.795 150.505 572.295 150.105C572.695 149.805 572.895 149.305 572.995 148.805L575.995 149.105C575.795 150.305 575.195 151.405 574.295 152.105C573.295 152.905 572.095 153.205 570.895 153.205C567.795 153.305 565.195 150.905 565.095 147.805C564.995 144.705 567.395 142.105 570.495 142.005C570.495 142.105 570.595 142.105 570.795 142.105Z" fill="white"/>
<path d="M582.296 142.105C583.496 142.005 584.696 142.405 585.596 143.205C586.396 144.105 586.796 145.205 586.696 146.405V153.005H583.796V152.105C583.096 152.805 582.096 153.205 580.996 153.205C580.096 153.305 579.096 153.005 578.396 152.405C577.696 151.805 577.396 150.905 577.396 150.005C577.396 147.905 578.796 146.905 581.696 146.705L583.596 146.605V146.205C583.596 145.105 583.096 144.505 582.196 144.505C581.796 144.505 581.396 144.605 581.096 144.905C580.796 145.205 580.696 145.505 580.696 145.905L577.696 145.805C577.696 144.805 578.196 143.805 578.996 143.105C579.896 142.505 581.096 142.105 582.296 142.105ZM583.696 148.705L582.096 148.805C581.096 148.805 580.496 149.205 580.496 149.905C580.496 150.605 580.896 150.905 581.696 150.905C582.196 150.905 582.696 150.805 583.096 150.405C583.496 150.105 583.696 149.605 583.596 149.105V148.705H583.696Z" fill="white"/>
<path d="M606.796 142.105C607.996 142.005 609.196 142.405 610.096 143.205C610.896 144.105 611.296 145.205 611.196 146.405V153.005H608.296V152.105C607.596 152.805 606.596 153.205 605.496 153.205C604.596 153.305 603.596 153.005 602.896 152.405C602.196 151.805 601.896 150.905 601.896 150.005C601.896 147.905 603.296 146.905 606.196 146.705L608.096 146.605V146.205C608.096 145.105 607.596 144.505 606.696 144.505C606.296 144.505 605.896 144.605 605.596 144.905C605.296 145.205 605.196 145.505 605.196 145.905L602.196 145.805C602.196 144.805 602.696 143.805 603.496 143.105C604.396 142.505 605.596 142.105 606.796 142.105ZM608.196 148.705L606.596 148.805C605.596 148.805 604.996 149.205 604.996 149.905C604.996 150.605 605.396 150.905 606.196 150.905C606.696 150.905 607.196 150.805 607.596 150.405C607.996 150.105 608.196 149.605 608.096 149.105V148.705H608.196Z" fill="white"/>
<path d="M600.195 153.105H597.395V152.005C597.095 152.405 596.595 152.805 596.095 153.005C595.495 153.305 594.795 153.405 594.195 153.405C592.795 153.505 591.395 152.905 590.495 151.905C588.595 149.505 588.595 146.205 590.495 143.805C591.495 142.805 592.795 142.205 594.195 142.305C595.295 142.205 596.395 142.605 597.195 143.405V137.005H600.195V153.105ZM594.595 144.705C593.895 144.705 593.195 145.005 592.695 145.505C592.195 146.105 591.895 146.905 591.995 147.705C591.995 148.505 592.195 149.305 592.695 149.905C593.195 150.405 593.895 150.705 594.595 150.705C595.295 150.705 595.995 150.505 596.395 150.005C596.895 149.405 597.095 148.705 597.095 148.005V147.505C597.095 146.805 596.895 146.105 596.395 145.505C595.995 145.005 595.295 144.705 594.595 144.705Z" fill="white"/>
<path d="M507.295 172.705C507.295 171.905 507.395 171.305 507.595 170.705C507.795 170.305 507.995 170.005 508.295 169.705C508.595 169.405 508.895 169.205 509.295 169.005C509.795 168.805 510.295 168.705 510.895 168.705C511.995 168.705 512.895 169.005 513.595 169.705C514.295 170.405 514.595 171.405 514.595 172.605C514.595 173.805 514.295 174.805 513.595 175.505C512.895 176.205 511.995 176.505 510.895 176.505C509.795 176.505 508.895 176.205 508.195 175.505C507.595 174.805 507.295 173.905 507.295 172.705ZM508.895 172.605C508.895 173.505 509.095 174.105 509.495 174.605C509.895 175.005 510.395 175.305 510.995 175.305C511.595 175.305 512.095 175.105 512.495 174.605C512.895 174.105 513.095 173.505 513.095 172.605C513.095 171.705 512.895 171.105 512.495 170.605C512.095 170.205 511.595 170.005 510.995 170.005C510.395 170.005 509.895 170.205 509.495 170.705C509.095 171.105 508.895 171.705 508.895 172.605Z" fill="white"/>
<path d="M519.496 176.505V175.705C519.296 176.005 518.996 176.205 518.696 176.405C518.396 176.605 517.996 176.705 517.696 176.705C517.296 176.705 516.996 176.605 516.696 176.505C516.396 176.305 516.196 176.105 516.096 175.805C515.996 175.505 515.896 175.105 515.896 174.605V171.105H517.396V173.605C517.396 174.405 517.396 174.905 517.496 175.005C517.596 175.205 517.696 175.305 517.796 175.405C517.896 175.505 518.096 175.605 518.296 175.605C518.496 175.605 518.796 175.505 518.996 175.405C519.196 175.305 519.296 175.105 519.396 174.905C519.496 174.705 519.496 174.205 519.496 173.405V171.105H520.996V176.605H519.496V176.505Z" fill="white"/>
<path d="M524.895 170.905V172.105H523.895V174.305C523.895 174.805 523.895 175.005 523.895 175.105C523.895 175.205 523.995 175.205 523.995 175.305C524.095 175.305 524.195 175.405 524.195 175.405C524.295 175.405 524.495 175.405 524.795 175.305L524.895 176.405C524.595 176.505 524.195 176.605 523.695 176.605C523.395 176.605 523.195 176.605 522.995 176.505C522.795 176.405 522.595 176.305 522.495 176.205C522.395 176.105 522.295 175.905 522.295 175.605C522.295 175.405 522.295 175.105 522.295 174.605V172.205H521.595V171.005H522.295V169.805L523.795 168.905V170.905H524.895Z" fill="white"/>
<path d="M525.195 176.605L527.095 168.705H528.195L526.295 176.605H525.195Z" fill="white"/>
<path d="M533.496 175.105V176.505H528.396C528.496 176.005 528.596 175.505 528.896 175.005C529.196 174.505 529.696 173.905 530.496 173.205C531.196 172.605 531.596 172.205 531.696 172.005C531.896 171.705 531.996 171.405 531.996 171.105C531.996 170.805 531.896 170.505 531.696 170.305C531.496 170.105 531.296 170.005 530.996 170.005C530.696 170.005 530.496 170.105 530.296 170.305C530.096 170.505 529.996 170.805 529.996 171.205L528.496 171.105C528.596 170.305 528.896 169.705 529.296 169.405C529.796 169.005 530.296 168.905 530.996 168.905C531.796 168.905 532.296 169.105 532.796 169.505C533.296 169.905 533.396 170.405 533.396 171.005C533.396 171.305 533.296 171.705 533.196 172.005C533.096 172.305 532.896 172.605 532.596 173.005C532.396 173.205 532.096 173.505 531.596 174.005C531.096 174.405 530.796 174.705 530.696 174.805C530.596 174.905 530.496 175.105 530.396 175.205H533.496V175.105Z" fill="white"/>
<path d="M536.996 168.805C537.696 168.805 538.296 169.105 538.696 169.605C539.196 170.205 539.396 171.305 539.396 172.705C539.396 174.105 539.196 175.205 538.596 175.805C538.196 176.305 537.596 176.605 536.896 176.605C536.196 176.605 535.596 176.305 535.096 175.705C534.596 175.105 534.396 174.105 534.396 172.605C534.396 171.205 534.596 170.105 535.196 169.505C535.696 169.005 536.296 168.805 536.996 168.805ZM536.996 170.005C536.796 170.005 536.696 170.105 536.496 170.205C536.396 170.305 536.296 170.505 536.196 170.805C536.096 171.205 535.996 171.805 535.996 172.705C535.996 173.605 535.996 174.205 536.096 174.505C536.196 174.805 536.296 175.105 536.396 175.205C536.496 175.305 536.696 175.405 536.896 175.405C537.096 175.405 537.196 175.305 537.396 175.205C537.496 175.105 537.596 174.905 537.696 174.605C537.796 174.205 537.896 173.605 537.896 172.705C537.896 171.805 537.896 171.205 537.796 170.905C537.696 170.605 537.596 170.305 537.496 170.205C537.296 170.105 537.196 170.005 536.996 170.005Z" fill="white"/>
<path d="M545.395 175.105V176.505H540.295C540.395 176.005 540.495 175.505 540.795 175.005C541.095 174.505 541.595 173.905 542.395 173.205C543.095 172.605 543.495 172.205 543.595 172.005C543.795 171.705 543.895 171.405 543.895 171.105C543.895 170.805 543.795 170.505 543.595 170.305C543.395 170.105 543.195 170.005 542.895 170.005C542.595 170.005 542.395 170.105 542.195 170.305C541.995 170.505 541.895 170.805 541.895 171.205L540.395 171.105C540.495 170.305 540.795 169.705 541.195 169.405C541.695 169.005 542.195 168.905 542.895 168.905C543.695 168.905 544.195 169.105 544.695 169.505C545.195 169.905 545.295 170.405 545.295 171.005C545.295 171.305 545.195 171.705 545.095 172.005C544.995 172.305 544.795 172.605 544.495 173.005C544.295 173.205 543.995 173.505 543.495 174.005C542.995 174.405 542.695 174.705 542.595 174.805C542.495 174.905 542.395 175.105 542.295 175.205H545.395V175.105Z" fill="white"/>
<path d="M551.295 175.105V176.505H546.195C546.295 176.005 546.395 175.505 546.695 175.005C546.995 174.505 547.495 173.905 548.295 173.205C548.995 172.605 549.395 172.205 549.495 172.005C549.695 171.705 549.795 171.405 549.795 171.105C549.795 170.805 549.695 170.505 549.495 170.305C549.295 170.105 549.095 170.005 548.795 170.005C548.495 170.005 548.295 170.105 548.095 170.305C547.895 170.505 547.795 170.805 547.795 171.205L546.295 171.105C546.395 170.305 546.695 169.705 547.095 169.405C547.595 169.005 548.095 168.905 548.795 168.905C549.595 168.905 550.095 169.105 550.595 169.505C551.095 169.905 551.195 170.405 551.195 171.005C551.195 171.305 551.095 171.705 550.995 172.005C550.895 172.305 550.695 172.605 550.395 173.005C550.195 173.205 549.895 173.505 549.395 174.005C548.895 174.405 548.595 174.705 548.495 174.805C548.395 174.905 548.295 175.105 548.195 175.205H551.295V175.105Z" fill="white"/>
<path d="M555.396 174.405V172.905H558.296V174.405H555.396Z" fill="white"/>
<path d="M561.795 172.705C561.795 171.905 561.895 171.305 562.095 170.705C562.295 170.305 562.495 170.005 562.795 169.705C563.095 169.405 563.395 169.205 563.795 169.005C564.295 168.805 564.795 168.705 565.395 168.705C566.495 168.705 567.395 169.005 568.095 169.705C568.795 170.405 569.095 171.405 569.095 172.605C569.095 173.805 568.795 174.805 568.095 175.505C567.395 176.205 566.495 176.505 565.395 176.505C564.295 176.505 563.395 176.205 562.695 175.505C562.195 174.805 561.795 173.905 561.795 172.705ZM563.395 172.605C563.395 173.505 563.595 174.105 563.995 174.605C564.395 175.105 564.895 175.305 565.495 175.305C566.095 175.305 566.595 175.105 566.995 174.605C567.395 174.205 567.595 173.505 567.595 172.605C567.595 171.705 567.395 171.105 566.995 170.605C566.595 170.205 566.095 170.005 565.495 170.005C564.895 170.005 564.395 170.205 563.995 170.705C563.595 171.105 563.395 171.705 563.395 172.605Z" fill="white"/>
<path d="M574.096 176.505V175.705C573.896 176.005 573.596 176.205 573.296 176.405C572.996 176.605 572.596 176.705 572.296 176.705C571.896 176.705 571.596 176.605 571.296 176.505C570.996 176.405 570.796 176.105 570.696 175.805C570.596 175.505 570.496 175.105 570.496 174.605V171.105H571.996V173.605C571.996 174.405 571.996 174.905 572.096 175.005C572.196 175.205 572.296 175.305 572.396 175.405C572.496 175.505 572.696 175.605 572.896 175.605C573.096 175.605 573.396 175.505 573.596 175.405C573.796 175.305 573.896 175.105 573.996 174.905C574.096 174.705 574.096 174.205 574.096 173.405V171.105H575.596V176.605H574.096V176.505Z" fill="white"/>
<path d="M579.495 170.905V172.105H578.495V174.305C578.495 174.805 578.495 175.005 578.495 175.105C578.495 175.205 578.595 175.205 578.595 175.305C578.695 175.305 578.795 175.405 578.795 175.405C578.895 175.405 579.095 175.405 579.395 175.305L579.495 176.405C579.195 176.505 578.795 176.605 578.295 176.605C577.995 176.605 577.795 176.605 577.595 176.505C577.395 176.405 577.195 176.305 577.095 176.205C576.995 176.105 576.895 175.905 576.895 175.605C576.895 175.405 576.895 175.105 576.895 174.605V172.205H576.195V171.005H576.895V169.805L578.395 168.905V170.905H579.495Z" fill="white"/>
<path d="M579.695 176.605L581.595 168.705H582.695L580.795 176.605H579.695Z" fill="white"/>
<path d="M588.096 175.105V176.505H582.996C583.096 176.005 583.196 175.505 583.496 175.005C583.796 174.505 584.296 173.905 585.096 173.205C585.796 172.605 586.196 172.205 586.296 172.005C586.496 171.705 586.596 171.405 586.596 171.105C586.596 170.805 586.496 170.505 586.296 170.305C586.096 170.105 585.896 170.005 585.596 170.005C585.296 170.005 585.096 170.105 584.896 170.305C584.696 170.505 584.596 170.805 584.596 171.205L583.096 171.105C583.196 170.305 583.496 169.705 583.896 169.405C584.396 169.005 584.896 168.905 585.596 168.905C586.396 168.905 586.896 169.105 587.396 169.505C587.896 169.905 587.996 170.405 587.996 171.005C587.996 171.305 587.896 171.705 587.796 172.005C587.696 172.305 587.496 172.605 587.196 173.005C586.996 173.205 586.696 173.505 586.196 174.005C585.696 174.505 585.396 174.705 585.296 174.805C585.196 174.905 585.096 175.105 584.996 175.205H588.096V175.105Z" fill="white"/>
<path d="M591.496 168.805C592.196 168.805 592.796 169.105 593.196 169.605C593.696 170.205 593.896 171.305 593.896 172.705C593.896 174.105 593.696 175.205 593.096 175.805C592.696 176.305 592.096 176.605 591.396 176.605C590.696 176.605 590.096 176.305 589.596 175.705C589.096 175.105 588.896 174.105 588.896 172.605C588.896 171.205 589.096 170.105 589.696 169.505C590.196 169.005 590.796 168.805 591.496 168.805ZM591.496 170.005C591.296 170.005 591.196 170.105 590.996 170.205C590.896 170.305 590.796 170.505 590.696 170.805C590.596 171.205 590.496 171.805 590.496 172.705C590.496 173.605 590.496 174.205 590.596 174.505C590.696 174.805 590.796 175.105 590.896 175.205C590.996 175.305 591.196 175.405 591.396 175.405C591.596 175.405 591.696 175.305 591.896 175.205C591.996 175.105 592.096 174.905 592.196 174.605C592.296 174.205 592.396 173.605 592.396 172.705C592.396 171.805 592.396 171.205 592.296 170.905C592.196 170.605 592.096 170.305 591.996 170.205C591.896 170.105 591.696 170.005 591.496 170.005Z" fill="white"/>
<path d="M599.895 175.105V176.505H594.795C594.895 176.005 594.995 175.505 595.295 175.005C595.595 174.505 596.095 173.905 596.895 173.205C597.595 172.605 597.995 172.205 598.095 172.005C598.295 171.705 598.395 171.405 598.395 171.105C598.395 170.805 598.295 170.505 598.095 170.305C597.895 170.105 597.695 170.005 597.395 170.005C597.095 170.005 596.895 170.105 596.695 170.305C596.495 170.505 596.395 170.805 596.395 171.205L594.895 171.105C594.995 170.305 595.295 169.705 595.695 169.405C596.095 169.105 596.695 168.905 597.395 168.905C598.195 168.905 598.695 169.105 599.195 169.505C599.695 169.905 599.795 170.405 599.795 171.005C599.795 171.305 599.695 171.705 599.595 172.005C599.495 172.305 599.295 172.605 598.995 173.005C598.795 173.205 598.495 173.505 597.995 174.005C597.495 174.405 597.195 174.705 597.095 174.805C596.995 174.905 596.895 175.105 596.795 175.205H599.895V175.105Z" fill="white"/>
<path d="M600.896 174.405L602.296 174.205C602.296 174.605 602.496 174.805 602.696 175.005C602.896 175.205 603.096 175.305 603.396 175.305C603.696 175.305 603.996 175.205 604.196 175.005C604.396 174.805 604.496 174.505 604.496 174.105C604.496 173.705 604.396 173.405 604.196 173.205C603.996 173.005 603.796 172.905 603.496 172.905C603.296 172.905 603.096 172.905 602.796 173.005L602.996 171.805C603.396 171.805 603.696 171.705 603.896 171.505C604.096 171.305 604.196 171.105 604.196 170.805C604.196 170.505 604.096 170.305 603.996 170.205C603.796 170.005 603.596 170.005 603.396 170.005C603.196 170.005 602.896 170.105 602.796 170.305C602.696 170.505 602.496 170.705 602.496 171.105L601.196 170.905C601.296 170.405 601.396 170.105 601.596 169.805C601.796 169.505 602.096 169.305 602.396 169.105C602.696 168.905 603.096 168.905 603.496 168.905C604.196 168.905 604.796 169.105 605.196 169.605C605.596 170.005 605.696 170.405 605.696 170.905C605.696 171.605 605.296 172.105 604.596 172.505C604.996 172.605 605.396 172.805 605.596 173.105C605.896 173.405 605.996 173.805 605.996 174.305C605.996 175.005 605.796 175.505 605.296 176.005C604.796 176.505 604.196 176.705 603.496 176.705C602.796 176.705 602.196 176.505 601.796 176.105C601.196 175.605 600.996 175.105 600.896 174.405Z" fill="white"/>
</g>
<defs>
<clipPath id="clip0_832_2265">
<rect width="150" height="218" fill="white" transform="translate(481.695 0.804688)"/>
</clipPath>
</defs>
</svg>
